<?xml version="1.0" encoding="UTF-8"?>
<svg version="1.1" xmlns="http://www.w3.org/2000/svg" width="64" height="64">
<path d="M0 0 C2.78590165 -0.46431694 4.31031295 -0.68373353 7 0 C10.00148167 2.38030546 12.50707616 5.09914316 15 8 C17.98063348 6.68801176 19.69492537 5.37735558 21.75 2.875 C23.588131 0.93317956 24.5080549 0.08879876 27.1640625 -0.390625 C29.375 -0.375 29.375 -0.375 33 0 C31.36917089 14.90769671 31.36917089 14.90769671 29.375 19 C26.58040175 25.09730526 28.21346827 30.59621978 30.4375 36.625 C33.0613381 43.94528781 34 49.03429709 34 57 C26.08 57 18.16 57 10 57 C9.67 58.65 9.34 60.3 9 62 C-1.89 62 -12.78 62 -24 62 C-24.1147733 56.78419114 -24.21430384 51.57275502 -24.2746582 46.35668945 C-24.29981206 44.58244999 -24.33393961 42.80831424 -24.37719727 41.03442383 C-24.43781463 38.48492882 -24.46619927 35.93680249 -24.48828125 33.38671875 C-24.51408768 32.59287277 -24.5398941 31.79902679 -24.56648254 30.98112488 C-24.56762695 28.73706055 -24.56762695 28.73706055 -24 25 C-21.52026367 23.11254883 -21.52026367 23.11254883 -19 22 C-18.12177688 19.91466367 -18.12177688 19.91466367 -18 18 C-16.83984375 18.14308594 -16.83984375 18.14308594 -15.65625 18.2890625 C-9.19150407 18.97714189 -4.19050318 19.02381835 2 17 C1.67 16.236875 1.34 15.47375 1 14.6875 C-0.33945668 9.74825349 -0.16287658 5.08536891 0 0 Z " fill="#446FC6" transform="translate(27,1)"/>
<path d="M0 0 C2.78590165 -0.46431694 4.31031295 -0.68373353 7 0 C10.00148167 2.38030546 12.50707616 5.09914316 15 8 C17.98063348 6.68801176 19.69492537 5.37735558 21.75 2.875 C23.588131 0.93317956 24.5080549 0.08879876 27.1640625 -0.390625 C29.375 -0.375 29.375 -0.375 33 0 C32.91245449 1.75091019 32.80426627 3.50079551 32.6875 5.25 C32.60048828 6.71179688 32.60048828 6.71179688 32.51171875 8.203125 C31.93196241 11.37186957 30.93767029 12.47780685 29 15 C28.01 17.64 27.02 20.28 26 23 C19.07 23 12.14 23 5 23 C5.33 24.32 5.66 25.64 6 27 C5.411438 29.354248 4.75407101 31.69342986 4 34 C4.66 34 5.32 34 6 34 C5.38517522 37.59057674 3.91446896 39.77333525 1.6875 42.625 C0.79611328 43.78902344 0.79611328 43.78902344 -0.11328125 44.9765625 C-1.9883827 46.98754086 -3.47866719 47.96475077 -6 49 C-6.33 47.02 -6.66 45.04 -7 43 C-7.66 43 -8.32 43 -9 43 C-9.30292969 42.28972656 -9.60585938 41.57945313 -9.91796875 40.84765625 C-10.33691406 39.92855469 -10.75585938 39.00945313 -11.1875 38.0625 C-11.59355469 37.14597656 -11.99960938 36.22945312 -12.41796875 35.28515625 C-13.8223391 32.75182704 -13.8223391 32.75182704 -16.67578125 32.18359375 C-17.82626953 32.09271484 -17.82626953 32.09271484 -19 32 C-19.66 29.69 -20.32 27.38 -21 25 C-20.34 24.67 -19.68 24.34 -19 24 C-18.34227572 20.97065509 -18.34227572 20.97065509 -18 18 C-16.83984375 18.14308594 -16.83984375 18.14308594 -15.65625 18.2890625 C-9.19150407 18.97714189 -4.19050318 19.02381835 2 17 C1.67 16.236875 1.34 15.47375 1 14.6875 C-0.33945668 9.74825349 -0.16287658 5.08536891 0 0 Z " fill="#436DCD" transform="translate(27,1)"/>
<path d="M0 0 C5.61 0 11.22 0 17 0 C25.28571429 21.14285714 25.28571429 21.14285714 23 28 C15.41 28 7.82 28 0 28 C0 18.76 0 9.52 0 0 Z " fill="#9EC3FC" transform="translate(36,29)"/>
<path d="M0 0 C5.61 0 11.22 0 17 0 C17 0.99 17 1.98 17 3 C11.39 3 5.78 3 0 3 C0 14.22 0 25.44 0 37 C-4.95 37 -9.9 37 -15 37 C-15.6745041 30.67386158 -14.69715537 27.73170023 -10.78320312 22.75585938 C-10.21537109 22.07330078 -9.64753906 21.39074219 -9.0625 20.6875 C-7.94610616 19.29806812 -6.83268846 17.90623825 -5.72265625 16.51171875 C-5.22515869 15.90803467 -4.72766113 15.30435059 -4.21508789 14.68237305 C-2.80078984 12.90087118 -2.80078984 12.90087118 -2 10 C-2.66 10 -3.32 10 -4 10 C-2.8741386 6.46157845 -1.66905241 3.33810482 0 0 Z " fill="#4570C6" transform="translate(35,25)"/>
<path d="M0 0 C1 3 1 3 -0.4375 6.25 C-0.72496094 6.79140625 -1.01242188 7.3328125 -1.30859375 7.890625 C-3.22517913 13.73783463 -1.61184265 19.06975712 0.4375 24.625 C3.0613381 31.94528781 4 37.03429709 4 45 C-3.92 45 -11.84 45 -20 45 C-20.33 46.65 -20.66 48.3 -21 50 C-31.89 50 -42.78 50 -54 50 C-54.1147733 44.78419114 -54.21430384 39.57275502 -54.2746582 34.35668945 C-54.29981206 32.58244999 -54.33393961 30.80831424 -54.37719727 29.03442383 C-54.43781463 26.48492882 -54.46619927 23.93680249 -54.48828125 21.38671875 C-54.51408768 20.59287277 -54.5398941 19.79902679 -54.56648254 18.98112488 C-54.56762695 16.73706055 -54.56762695 16.73706055 -54 13 C-51.46948242 10.97583008 -51.46948242 10.97583008 -49 10 C-49 16 -49 16 -50 19 C-50.66 17.68 -51.32 16.36 -52 15 C-52.33 25.89 -52.66 36.78 -53 48 C-48.05 48 -43.1 48 -38 48 C-38.2475 46.1128125 -38.2475 46.1128125 -38.5 44.1875 C-39.18856628 38.93718214 -38.54012318 35.10165803 -37 30 C-36.67 30 -36.34 30 -36 30 C-35.67 31.98 -35.34 33.96 -35 36 C-34.01 35.505 -34.01 35.505 -33 35 C-33.46019531 35.82757813 -33.46019531 35.82757813 -33.9296875 36.671875 C-35.09442941 39.20540121 -35.62057956 41.51171762 -36.125 44.25 C-36.41375 45.8175 -36.7025 47.385 -37 49 C-32.05 49 -27.1 49 -22 49 C-22 37.78 -22 26.56 -22 15 C-16.39 15 -10.78 15 -5 15 C-5 14.01 -5 13.02 -5 12 C-10.61 12 -16.22 12 -22 12 C-22.66 13.98 -23.32 15.96 -24 18 C-25 15 -25 15 -25 11 C-18.07 11 -11.14 11 -4 11 C-3.67 9.35 -3.34 7.7 -3 6 C-2.04605164 3.97762948 -1.05464649 1.9717304 0 0 Z M-21 16 C-21 25.24 -21 34.48 -21 44 C-13.41 44 -5.82 44 2 44 C4.80287464 35.59137609 -0.90330536 23.90191045 -4 16 C-9.61 16 -15.22 16 -21 16 Z " fill="#3A65CC" transform="translate(57,13)"/>
<path d="M0 0 C1.299375 0.185625 2.59875 0.37125 3.9375 0.5625 C8.80547826 1.11884037 13.15954005 0.69149428 18 0 C17.01 0.66 16.02 1.32 15 2 C16.32 2 17.64 2 19 2 C19.43419267 7.29715061 19.43419267 7.29715061 19 10 C16.8125 11.4375 16.8125 11.4375 14 13 C12.08554956 15.87684984 10.52605763 18.90242771 9 22 C7.13140494 19.61378858 5.82166891 17.6045702 4.5625 14.8125 C3.33201946 11.8433484 3.33201946 11.8433484 0.90234375 11.32421875 C0.27457031 11.21722656 -0.35320313 11.11023437 -1 11 C-1.0270043 9.54176788 -1.04639787 8.08339325 -1.0625 6.625 C-1.07410156 5.81289063 -1.08570313 5.00078125 -1.09765625 4.1640625 C-1 2 -1 2 0 0 Z " fill="#9E9BCE" transform="translate(11,21)"/>
<path d="M0 0 C-0.4996269 7.49440349 -2.43764478 13.95650263 -5 21 C-7.97 21 -10.94 21 -14 21 C-15.20423996 10.02803595 -15.20423996 10.02803595 -12.4296875 5.35546875 C-8.6551462 1.37282536 -5.75422033 -1.15084407 0 0 Z " fill="#A0C5FD" transform="translate(58,3)"/>
<path d="M0 0 C3.26994343 -0.65398869 5.31876528 -0.4138684 8.1796875 1.32421875 C11.83196574 4.42410615 13.79095295 6.58973646 14.5078125 11.42578125 C14.50075476 14.65469644 14.35215294 17.79149545 14 21 C11.36 21 8.72 21 6 21 C2.37971588 14.2421363 -0.49196376 7.87142012 0 0 Z " fill="#A0C6FD" transform="translate(28,3)"/>
<path d="M0 0 C0.66 0.33 1.32 0.66 2 1 C0.77472971 5.05281712 -0.69880494 8.44360764 -3 12 C-5.86453858 8.58983503 -7.34703566 5.09305456 -9 1 C-6.01405576 -0.49297212 -3.29146376 -0.11755228 0 0 Z " fill="#DBE7FA" transform="translate(23,31)"/>
<path d="M0 0 C0 2.64 0 5.28 0 8 C-1.99954746 8.04254356 -4.00041636 8.04080783 -6 8 C-7 7 -7 7 -7.0625 3.9375 C-7.041875 2.968125 -7.02125 1.99875 -7 1 C-4 0 -4 0 0 0 Z " fill="#E8A1AA" transform="translate(30,23)"/>
<path d="M0 0 C5.875 0.875 5.875 0.875 7 2 C7.04063832 3.66617115 7.042721 5.33388095 7 7 C4.69 7.66 2.38 8.32 0 9 C0 6.03 0 3.06 0 0 Z " fill="#F2A4A8" transform="translate(10,23)"/>
<path d="M0 0 C5.61 0 11.22 0 17 0 C17 0.99 17 1.98 17 3 C11.72 3 6.44 3 1 3 C0.67 2.01 0.34 1.02 0 0 Z " fill="#DEEAFB" transform="translate(35,25)"/>
</svg>
